<?xml version="1.0" encoding="UTF-8"?>
<svg xmlns="http://www.w3.org/2000/svg" width="1100" height="1076" viewBox="0 0 1100 1076">
  <defs>
    <marker id="arrow" markerWidth="8" markerHeight="8" refX="6" refY="3" orient="auto">
      <polygon points="0 0, 8 3, 0 6" fill="#555"/>
    </marker>
  </defs>
  <rect width="100%" height="100%" fill="#ffffff"/>
  <text x="40" y="28" font-family="Arial,sans-serif" font-size="16" font-weight="bold">Stock Transfer Workflow</text>
<text x="40" y="44" font-family="Arial,sans-serif" font-size="10" fill="#666">L1 detail — see cross-cutting-persistence-flow for write pattern.</text>
<path d="M410,898 L760,891" fill="none" stroke="#555" stroke-width="1.5" stroke-dasharray="6,4"/>
<path d="M300,100 L300,132" fill="none" stroke="#555" stroke-width="1.5" marker-end="url(#arrow)"/>
<path d="M300,184 L300,216" fill="none" stroke="#555" stroke-width="1.5" marker-end="url(#arrow)"/>
<path d="M300,268 L300,300" fill="none" stroke="#555" stroke-width="1.5" marker-end="url(#arrow)"/>
<path d="M200,345 L140,345 L140,242 L190,242" fill="none" stroke="#555" stroke-width="1.5" marker-end="url(#arrow)" stroke-dasharray="6,4"/>
<text x="132" y="294" font-family="Arial,sans-serif" font-size="9" fill="#333">No</text>
<path d="M300,390 L300,422" fill="none" stroke="#555" stroke-width="1.5" marker-end="url(#arrow)"/>
<text x="310" y="406" font-family="Arial,sans-serif" font-size="9" fill="#333">Yes</text>
<path d="M400,467 L540,467 L540,528" fill="none" stroke="#b85450" stroke-width="1.5" marker-end="url(#arrow)"/>
<text x="470" y="461" font-family="Arial,sans-serif" font-size="9" fill="#333">No</text>
<path d="M300,512 L300,544" fill="none" stroke="#555" stroke-width="1.5" marker-end="url(#arrow)"/>
<text x="310" y="528" font-family="Arial,sans-serif" font-size="9" fill="#333">Yes</text>
<path d="M300,596 L300,628" fill="none" stroke="#555" stroke-width="1.5" marker-end="url(#arrow)"/>
<path d="M300,718 L300,750" fill="none" stroke="#555" stroke-width="1.5" marker-end="url(#arrow)"/>
<text x="310" y="734" font-family="Arial,sans-serif" font-size="9" fill="#333">Yes</text>
<path d="M300,718 L300,956" fill="none" stroke="#555" stroke-width="1.5" marker-end="url(#arrow)"/>
<text x="310" y="837" font-family="Arial,sans-serif" font-size="9" fill="#333">No</text>
<path d="M300,840 L300,872" fill="none" stroke="#555" stroke-width="1.5" marker-end="url(#arrow)"/>
<text x="310" y="856" font-family="Arial,sans-serif" font-size="9" fill="#333">Yes</text>
<path d="M300,840 L300,872" fill="none" stroke="#555" stroke-width="1.5" marker-end="url(#arrow)"/>
<text x="310" y="856" font-family="Arial,sans-serif" font-size="9" fill="#333">No</text>
<path d="M300,924 L300,956" fill="none" stroke="#555" stroke-width="1.5" marker-end="url(#arrow)"/>
<ellipse cx="300" cy="80" rx="65" ry="20" fill="#d5e8d4" stroke="#82b366" stroke-width="1.5"/>
<text x="300" y="80" text-anchor="middle" font-family="Arial,sans-serif" font-size="10" fill="#333">Start</text>
<rect x="190" y="132" width="220" height="52" rx="8" fill="#dae8fc" stroke="#6c8ebf" stroke-width="1.5"/>
<text x="300" y="152" text-anchor="middle" font-family="Arial,sans-serif" font-size="10" fill="#333">Create draft transfer</text>
<text x="300" y="166" text-anchor="middle" font-family="Arial,sans-serif" font-size="10" fill="#333">(source branch ≠ destination)</text>
<rect x="190" y="216" width="220" height="52" rx="8" fill="#dae8fc" stroke="#6c8ebf" stroke-width="1.5"/>
<text x="300" y="236" text-anchor="middle" font-family="Arial,sans-serif" font-size="10" fill="#333">Add items with sent quantities</text>
<polygon points="300,300 400,345 300,390 200,345" fill="#fff2cc" stroke="#d6b656" stroke-width="1.5"/>
<text x="300" y="320" text-anchor="middle" font-family="Arial,sans-serif" font-size="10" fill="#333">Dispatch goods?</text>
<polygon points="300,422 400,467 300,512 200,467" fill="#fff2cc" stroke="#d6b656" stroke-width="1.5"/>
<text x="300" y="442" text-anchor="middle" font-family="Arial,sans-serif" font-size="10" fill="#333">At least one item?</text>
<rect x="190" y="544" width="220" height="52" rx="8" fill="#dae8fc" stroke="#6c8ebf" stroke-width="1.5"/>
<text x="300" y="564" text-anchor="middle" font-family="Arial,sans-serif" font-size="10" fill="#333">Dispatch: stock OUT at source — IN_TRANSIT</text>
<polygon points="300,628 400,673 300,718 200,673" fill="#fff2cc" stroke="#d6b656" stroke-width="1.5"/>
<text x="300" y="648" text-anchor="middle" font-family="Arial,sans-serif" font-size="10" fill="#333">Receive at destination?</text>
<polygon points="300,750 400,795 300,840 200,795" fill="#fff2cc" stroke="#d6b656" stroke-width="1.5"/>
<text x="300" y="770" text-anchor="middle" font-family="Arial,sans-serif" font-size="10" fill="#333">Partial quantity received?</text>
<rect x="190" y="872" width="220" height="52" rx="8" fill="#dae8fc" stroke="#6c8ebf" stroke-width="1.5"/>
<text x="300" y="892" text-anchor="middle" font-family="Arial,sans-serif" font-size="10" fill="#333">Receive: stock IN at destination</text>
<text x="300" y="906" text-anchor="middle" font-family="Arial,sans-serif" font-size="10" fill="#333">— COMPLETED or PARTIALLY_RECEIVED</text>
<rect x="760" y="872" width="300" height="38" rx="6" fill="#fff2cc" stroke="#b85450" stroke-width="1.5" stroke-dasharray="8,8"/>
<text x="910" y="892" text-anchor="middle" font-family="Arial,sans-serif" font-size="10" fill="#333">Deferred v2: inTransitQuantity bucket not implemented</text>
<ellipse cx="300" cy="976" rx="65" ry="20" fill="#d5e8d4" stroke="#82b366" stroke-width="1.5"/>
<text x="300" y="976" text-anchor="middle" font-family="Arial,sans-serif" font-size="10" fill="#333">End</text>
<rect x="540" y="508" width="150" height="40" rx="8" fill="#f8cecc" stroke="#b85450" stroke-width="1.5"/>
<text x="615" y="528" text-anchor="middle" font-family="Arial,sans-serif" font-size="10" fill="#333">Rejected</text>
</svg>
